<?xml version="1.0" encoding="UTF-8"?>
<svg id="Layer_2" data-name="Layer 2" xmlns="http://www.w3.org/2000/svg" viewBox="0 0 264.24 179.1">
  <defs>
    <style>
      .cls-1 {
        fill: #e9a35d;
      }
    </style>
  </defs>
  <g id="Layer_1-2" data-name="Layer 1">
    <g>
      <path class="cls-1" d="M264.24,22.08s-10.6,42.13-20.18,104.59c-5.43-4.93-10.64-9.17-15.62-12.74-35.25-25.35-58.63-17.19-63.33,19.22,41.24-18.66,52.62,8.1,45.37,29.14-3.41,9.91-12.25,16.92-22.74,16.81-37.47-.39-100.12-58.58-147.08-27.49-2.62,1.73-5.2,3.74-7.71,6.06-3.04,1.26-5.86-3.37-6.54-6.7L4.89,45,0,20.9l65.38,59.22-.59-43.31,69.23,66.88L201.2,32.69l2.35,45.37,54.41-50.19,6.28-5.79Z"/>
      <polygon class="cls-1" points="131.04 0 110.7 36.19 130.86 73.82 151.32 36.19 131.04 0"/>
    </g>
  </g>
</svg>