<?xml version="1.0" encoding="UTF-8"?>
<svg id="Layer_2" data-name="Layer 2" xmlns="http://www.w3.org/2000/svg" viewBox="0 0 400.4 400.4">
  <defs>
    <style>
      .cls-1 {
        fill: #fafafa;
      }

      .cls-2 {
        fill: #b1aeb7;
      }
    </style>
  </defs>
  <g id="Layer_1-2" data-name="Layer 1">
    <g>
      <circle class="cls-2" cx="200.2" cy="200.2" r="200.2"/>
      <g>
        <path class="cls-1" d="M148.65,150.69c0,6.1-.12,6.73-1.25,7.35-4.48,2.37-5.23,15.82-1.62,26.41,1.87,5.36,5.61,11.71,9.22,15.69,1.99,2.24,3.24,4.36,4.23,7.6,5.11,14.82,16.19,26.53,29.77,31.26,3.24,1.12,5.23,1.37,11.09,1.37s7.72-.12,11.58-1.62c13.33-4.86,23.54-15.57,29.02-30.52,1.25-3.61,2.62-5.98,4.61-8.1,3.61-4.11,7.35-10.34,9.34-15.82,1.25-3.74,1.62-5.85,1.87-11.96,.25-8.35-.62-12.21-3.24-13.95-1.37-.87-1.37-1.12-1-7.6l.17-11.46c-32.13,36.8-87.4-34.81-103.8,4.61v6.73Z"/>
        <path class="cls-1" d="M318.57,319.24c0,29.03-53.12,52.56-118.65,52.56s-118.66-23.53-118.66-52.56c0-1.85,.22-3.69,.64-5.49,.02-5.2,1.2-13.03,3.35-20.51,4.98-17.31,12.95-30.02,24.16-38.49,4.99-3.86,17.32-9.84,34.01-16.69,7.1-2.99,13.45-5.6,14.07-5.85,1.62-.75,3.37-.75,3.49,0,0,1.12,9.34,10.46,13.2,13.2,7.73,5.48,17.57,8.84,26.04,8.84,12.83,0,27.65-7.59,36.62-18.68,1.86-2.12,3.61-3.99,3.86-3.99,1.87,0,35.37,14.45,42.85,18.44,15.32,8.22,25.53,22.3,31.63,43.22,2.47,8.74,3.71,18.28,3.23,23.2,.1,.92,.16,1.86,.16,2.8Z"/>
        <g>
          <path class="cls-1" d="M129.15,55.21l14.05,69.15c.36,1.77,1.86,4.23,3.47,3.56,25.31-23.3,61.27,11.18,82.3,11.39,5.58,.06,10.28-3.67,12.09-8.94,3.85-11.18-2.2-25.41-24.13-15.49,2.85-22.09,18.64-24.62,41.98-3.45,5.09-33.21,10.73-55.61,10.73-55.61l-32.27,29.76-1.25-24.12-35.71,37.75-36.81-35.56,.31,23.03-34.76-31.49Z"/>
          <polygon class="cls-1" points="198.83 44.1 188.01 63.35 198.73 83.35 209.61 63.34 198.83 44.1"/>
        </g>
      </g>
    </g>
  </g>
</svg>